<svg aria-hidden="true" style="position: absolute; width: 0; height: 0; overflow: hidden;" version="1.1" xmlns="http://www.w3.org/2000/svg" xmlns:xlink="http://www.w3.org/1999/xlink">
<defs>
<symbol id="icon-angular" viewBox="0 0 32 32">
<title>angular</title>
<path fill="#dd0031" style="fill: var(--color1, #dd0031)" d="M13.24 16.86h5.512l-2.757-6.54z"></path>
<path fill="#dd0031" style="fill: var(--color1, #dd0031)" d="M15.995 0.012l-15.080 5.305 2.3 19.68 12.78 6.991 12.784-6.984 2.299-19.684-15.083-5.307zM25.405 24.408h-3.515l-1.893-4.668h-8.004l-1.893 4.668h-3.517l9.413-20.864 9.409 20.864z"></path>
</symbol>
<symbol id="icon-applemusic" viewBox="0 0 32 32">
<title>applemusic</title>
<path d="M31.996 8.165c0-0.984-0.087-1.96-0.32-2.92-0.423-1.747-1.416-3.080-2.907-4.057-0.765-0.499-1.605-0.808-2.503-0.969-0.689-0.124-1.384-0.18-2.085-0.2-0.053-0.004-0.111-0.013-0.165-0.017h-16.032c-0.203 0.013-0.404 0.023-0.607 0.035-0.996 0.057-1.987 0.164-2.924 0.535-1.781 0.707-3.067 1.936-3.82 3.707-0.256 0.597-0.389 1.233-0.484 1.877-0.075 0.523-0.117 1.047-0.133 1.573 0 0.043-0.009 0.083-0.013 0.124v16.297c0.013 0.187 0.023 0.377 0.036 0.565 0.067 1.087 0.205 2.165 0.663 3.164 0.867 1.893 2.317 3.137 4.312 3.736 0.56 0.169 1.141 0.249 1.724 0.304 0.74 0.071 1.48 0.080 2.223 0.080h14.707c0.7 0 1.397-0.045 2.093-0.133 1.097-0.141 2.129-0.467 3.061-1.080 1.12-0.737 1.963-1.716 2.507-2.944 0.248-0.56 0.391-1.16 0.493-1.765 0.151-0.9 0.184-1.811 0.183-2.72-0.003-5.067 0-10.127-0.004-15.191zM23.432 13.485v7.616c0 0.556-0.077 1.103-0.325 1.608-0.387 0.787-1.013 1.283-1.851 1.52-0.467 0.133-0.941 0.209-1.427 0.231-1.267 0.060-2.364-0.8-2.591-2.048-0.189-1.031 0.303-2.165 1.384-2.696 0.431-0.213 0.893-0.333 1.357-0.432 0.504-0.109 1.011-0.204 1.512-0.32 0.365-0.084 0.609-0.307 0.68-0.688 0.019-0.084 0.027-0.173 0.027-0.257 0-2.42 0-4.84-0.003-7.257 0-0.083-0.013-0.167-0.035-0.247-0.053-0.2-0.2-0.324-0.405-0.312-0.213 0.013-0.424 0.047-0.633 0.088-1.013 0.2-2.027 0.404-3.040 0.608l-4.933 0.997c-0.021 0.004-0.043 0.013-0.064 0.017-0.369 0.103-0.503 0.271-0.52 0.653-0.003 0.056 0 0.115 0 0.173-0.003 3.469 0 6.939-0.004 10.407 0 0.56-0.063 1.115-0.287 1.636-0.371 0.853-1.027 1.387-1.912 1.644-0.467 0.133-0.947 0.213-1.433 0.229-1.28 0.048-2.34-0.8-2.56-2.059-0.187-1.083 0.307-2.247 1.539-2.767 0.476-0.2 0.973-0.309 1.477-0.413 0.383-0.080 0.767-0.155 1.147-0.236 0.511-0.111 0.777-0.431 0.8-0.952v-0.2c0-3.947 0-7.896 0.003-11.843 0-0.164 0.017-0.333 0.056-0.493 0.093-0.38 0.364-0.597 0.728-0.691 0.34-0.088 0.687-0.149 1.032-0.22 0.977-0.2 1.955-0.395 2.933-0.592l3.027-0.613c0.893-0.179 1.787-0.36 2.68-0.537 0.293-0.057 0.591-0.117 0.885-0.141 0.413-0.033 0.697 0.227 0.739 0.643 0.011 0.097 0.016 0.197 0.016 0.297 0.003 2.547 0.003 5.096 0 7.643z"></path>
</symbol>
<symbol id="icon-bootstrap" viewBox="0 0 32 32">
<title>bootstrap</title>
<path fill="#563d7c" style="fill: var(--color2, #563d7c)" d="M26.667 0h-21.333c-2.943 0.008-5.325 2.391-5.333 5.333v21.333c0 2.933 2.4 5.333 5.333 5.333h21.333c2.933 0 5.333-2.4 5.333-5.333v-21.333c0-2.933-2.4-5.333-5.333-5.333zM23.751 22.473c-0.267 0.643-0.689 1.209-1.231 1.645-0.56 0.453-1.269 0.827-2.143 1.093-0.872 0.271-1.909 0.407-3.111 0.407h-8.576v-18.667h9.069c1.677 0 3.021 0.377 4.027 1.147 1.013 0.773 1.517 1.925 1.517 3.48 0 0.94-0.229 1.747-0.691 2.413-0.459 0.663-1.12 1.181-1.973 1.541v0.061c1.139 0.24 2.020 0.78 2.6 1.62s0.877 1.901 0.877 3.183c0 0.717-0.139 1.4-0.4 2.037l0.033 0.036zM20.049 17.873c-0.547-0.5-1.315-0.744-2.307-0.744h-5.763v5.824h5.779c0.987 0 1.76-0.256 2.307-0.773 0.547-0.513 0.827-1.245 0.827-2.187-0.009-0.92-0.28-1.632-0.827-2.12h-0.023zM19.249 14.109c0.528-0.448 0.787-1.089 0.787-1.925 0-0.939-0.233-1.605-0.707-1.987-0.469-0.38-1.147-0.577-2.037-0.577h-5.333v5.151h5.333c0.777 0 1.44-0.227 1.952-0.661z"></path>
</symbol>
<symbol id="icon-css3" viewBox="0 0 32 32">
<title>css3</title>
<path fill="#1572b6" style="fill: var(--color3, #1572b6)" d="M2 0h28l-2.547 28.751-11.484 3.249-11.42-3.251-2.549-28.749zM24.787 5.884l-17.573-0.004 0.284 3.496 13.5 0.003-0.34 3.621h-8.853l0.32 3.431h8.243l-0.488 4.697-3.88 1.072-3.941-1.080-0.251-2.813h-3.48l0.387 5.14 7.287 2.271 7.164-2.040 1.623-17.792z"></path>
</symbol>
<symbol id="icon-facebook" viewBox="0 0 32 32">
<title>facebook</title>
<path fill="#3b5998" style="fill: var(--color4, #3b5998)" d="M30.235 0h-28.469c-0.975 0-1.765 0.791-1.765 1.765v28.469c0 0.976 0.791 1.765 1.765 1.765h15.325v-12.392h-4.172v-4.828h4.172v-3.567c0-4.132 2.525-6.38 6.212-6.38 1.767 0 3.285 0.129 3.728 0.188v4.32h-2.561c-2 0-2.389 0.961-2.389 2.361v3.081h4.779l-0.62 4.84h-4.159v12.376h8.153c0.977 0 1.767-0.789 1.767-1.765v-28.469c0-0.975-0.789-1.765-1.765-1.765z"></path>
</symbol>
<symbol id="icon-github" viewBox="0 0 32 32">
<title>github</title>
<path d="M16 0.396c-8.84 0-16 7.164-16 16 0 7.071 4.584 13.067 10.94 15.18 0.8 0.151 1.093-0.344 1.093-0.769 0-0.38-0.013-1.387-0.020-2.72-4.451 0.965-5.389-2.147-5.389-2.147-0.728-1.847-1.78-2.34-1.78-2.34-1.449-0.992 0.112-0.972 0.112-0.972 1.607 0.112 2.451 1.648 2.451 1.648 1.427 2.447 3.745 1.74 4.66 1.331 0.144-1.035 0.556-1.74 1.013-2.14-3.553-0.4-7.288-1.776-7.288-7.907 0-1.747 0.62-3.173 1.647-4.293-0.18-0.404-0.72-2.031 0.14-4.235 0 0 1.34-0.429 4.4 1.64 1.28-0.356 2.64-0.532 4-0.54 1.36 0.008 2.72 0.184 4 0.54 3.040-2.069 4.38-1.64 4.38-1.64 0.86 2.204 0.32 3.831 0.16 4.235 1.020 1.12 1.64 2.547 1.64 4.293 0 6.147-3.74 7.5-7.3 7.893 0.56 0.48 1.080 1.461 1.080 2.96 0 2.141-0.020 3.861-0.020 4.381 0 0.42 0.28 0.92 1.1 0.76 6.401-2.099 10.981-8.099 10.981-15.159 0-8.836-7.164-16-16-16z"></path>
</symbol>
<symbol id="icon-gmail" viewBox="0 0 32 32">
<title>gmail</title>
<path fill="#d14836" style="fill: var(--color5, #d14836)" d="M32 6v20c0 1.133-0.867 2-2 2h-2v-18.151l-12 8.617-12-8.617v18.151h-2c-1.135 0-2-0.867-2-2v-20c0-0.567 0.216-1.067 0.575-1.424 0.359-0.363 0.86-0.576 1.425-0.576h0.667l13.333 9.667 13.333-9.667h0.667c0.567 0 1.067 0.216 1.425 0.576 0.36 0.357 0.575 0.857 0.575 1.424z"></path>
</symbol>
<symbol id="icon-hackerrank" viewBox="0 0 32 32">
<title>hackerrank</title>
<path fill="#2ec866" style="fill: var(--color6, #2ec866)" d="M16 0c1.713 0 13 6.515 13.856 8 0.86 1.487 0.86 14.513 0 16s-12.14 8-13.856 8-13-6.513-13.86-8c-0.855-1.487-0.855-14.513 0-16 0.86-1.485 12.147-8 13.86-8zM19.060 9.065c-0.188 0-0.344 0.153-0.344 0.344v5.167h-5.432v-5.365h0.935c0.188 0 0.339-0.153 0.339-0.344 0-0.125-0.065-0.235-0.164-0.295l-2.096-2.012c-0.065-0.084-0.188-0.145-0.301-0.145-0.112 0-0.213 0.060-0.276 0.143l-2.24 2.016c-0.096 0.060-0.16 0.168-0.16 0.291 0 0.191 0.151 0.344 0.34 0.344h0.939l0.011 13.38c0 0.193 0.148 0.344 0.339 0.344h1.989c0.189 0 0.345-0.153 0.345-0.341v-5.339h5.431v5.536h-0.932c-0.191 0-0.341 0.153-0.341 0.344 0 0.123 0.064 0.232 0.159 0.292l2.105 2.013c0.059 0.081 0.188 0.145 0.3 0.145 0.113 0 0.212-0.060 0.277-0.145l2.239-2.013c0.096-0.060 0.16-0.169 0.16-0.292 0-0.191-0.153-0.344-0.34-0.344h-0.939l-0.009-13.379c0-0.193-0.152-0.347-0.34-0.347h-1.992v0.003z"></path>
</symbol>
<symbol id="icon-hipchat" viewBox="0 0 32 32">
<title>hipchat</title>
<path fill="#0052cc" style="fill: var(--color7, #0052cc)" d="M29.133 29.175c-1.113-0.636-2.145-1.752-2.705-3.264-0.080-0.32 0-0.556 0.241-0.715 3.339-2.471 5.331-6.209 5.331-10.349 0-7.64-7.164-13.851-16-13.851-8.836 0.080-16 6.288-16 13.851 0 7.64 7.164 13.849 16 13.849 1.115 0 2.229-0.079 3.344-0.32 0.24-0.079 0.476 0 0.637 0.16 2.149 1.356 5.492 2.469 8.28 2.469 0.872 0 1.271-0.555 1.271-1.113 0.16-0.241-0.161-0.481-0.399-0.717zM24.833 27.901c0.081 0.080 0.081 0.157 0.081 0.157 0 0.083-0.081 0.16-0.16 0.16-0.795 0-3.34-1.352-4.615-2.388-0.159-0.161-0.4-0.241-0.796-0.161-1.036 0.241-2.229 0.401-3.344 0.401-7.401 0-13.373-4.936-13.373-11.067 0-6.128 5.972-11.064 13.373-11.064s13.375 4.936 13.375 11.064c0 3.584-2.071 6.845-5.416 8.836-0.24 0.16-0.479 0.4-0.479 0.72 0 0.713 0.639 2.307 1.356 3.341h-0.003zM24.753 18.111c0-0.32-0.236-0.64-0.635-0.64-0.16 0-0.32 0.080-0.4 0.16-1.589 1.435-4.376 2.708-7.72 2.708s-5.971-1.36-7.72-2.72c-0.080-0.081-0.32-0.16-0.4-0.16-0.4 0-0.636 0.32-0.636 0.719 0 0.32 0.159 0.54 0.399 0.781 0.955 1.34 3.901 3.82 8.357 3.82h0.081c4.46 0 7.4-2.401 8.36-3.901 0.080-0.24 0.315-0.56 0.315-0.8l-0.001 0.033z"></path>
</symbol>
<symbol id="icon-html5" viewBox="0 0 32 32">
<title>html5</title>
<path fill="#e34f26" style="fill: var(--color8, #e34f26)" d="M2 0h28l-2.547 28.751-11.484 3.249-11.419-3.251-2.551-28.749zM11.375 13l-0.309-3.624 13.412 0.004 0.307-3.496-17.568-0.004 0.931 10.68h12.168l-0.435 4.568-3.88 1.072-3.94-1.080-0.251-2.813h-3.479l0.44 5.561 7.229 1.933 7.172-1.924 0.992-10.876h-12.789z"></path>
</symbol>
<symbol id="icon-javascript" viewBox="0 0 32 32">
<title>javascript</title>
<path fill="#f7df1e" style="fill: var(--color9, #f7df1e)" d="M0 0h32v32h-32v-32zM29.379 24.368c-0.233-1.46-1.184-2.687-4.004-3.831-0.981-0.46-2.072-0.78-2.396-1.52-0.121-0.44-0.14-0.68-0.061-0.94 0.2-0.861 1.22-1.12 2.020-0.88 0.52 0.16 1 0.56 1.301 1.2 1.379-0.901 1.379-0.901 2.34-1.5-0.36-0.56-0.539-0.801-0.781-1.040-0.84-0.94-1.959-1.42-3.779-1.379l-0.94 0.119c-0.901 0.22-1.76 0.7-2.28 1.34-1.52 1.721-1.081 4.721 0.759 5.961 1.82 1.36 4.481 1.659 4.821 2.94 0.32 1.56-1.16 2.060-2.621 1.88-1.081-0.24-1.68-0.781-2.34-1.781l-2.44 1.401c0.28 0.64 0.6 0.919 1.080 1.479 2.32 2.341 8.12 2.221 9.161-1.339 0.039-0.12 0.32-0.94 0.099-2.2l0.061 0.089zM17.401 14.708h-2.997c0 2.584-0.012 5.152-0.012 7.74 0 1.643 0.084 3.151-0.184 3.615-0.44 0.919-1.573 0.801-2.088 0.64-0.528-0.261-0.796-0.621-1.107-1.14-0.084-0.14-0.147-0.261-0.169-0.261l-2.433 1.5c0.407 0.84 1 1.563 1.765 2.023 1.14 0.68 2.672 0.9 4.276 0.54 1.044-0.301 1.944-0.921 2.415-1.881 0.68-1.24 0.536-2.76 0.529-4.461 0.016-2.739 0-5.479 0-8.239l0.005-0.075z"></path>
</symbol>
<symbol id="icon-linkedin" viewBox="0 0 32 32">
<title>linkedin</title>
<path fill="#0077b5" style="fill: var(--color10, #0077b5)" d="M27.263 27.269h-4.739v-7.425c0-1.771-0.036-4.049-2.469-4.049-2.471 0-2.848 1.927-2.848 3.919v7.556h-4.739v-15.269h4.552v2.081h0.061c0.636-1.2 2.183-2.467 4.493-2.467 4.801 0 5.689 3.16 5.689 7.273v8.381zM7.116 9.911c-1.525 0-2.751-1.235-2.751-2.753 0-1.517 1.227-2.751 2.751-2.751 1.52 0 2.752 1.233 2.752 2.751 0 1.519-1.233 2.753-2.752 2.753zM9.492 27.269h-4.752v-15.269h4.752v15.269zM29.633 0h-27.272c-1.305 0-2.361 1.032-2.361 2.305v27.389c0 1.275 1.056 2.305 2.361 2.305h27.268c1.304 0 2.371-1.031 2.371-2.305v-27.389c0-1.273-1.067-2.305-2.371-2.305h0.004z"></path>
</symbol>
<symbol id="icon-microgenetics" viewBox="0 0 32 32">
<title>microgenetics</title>
<path fill="#f00" style="fill: var(--color11, #f00)" d="M16.011 8c3.46 0 5.747 1.684 7.444 3.635l0.331 0.391c0.109 0.135 0.219 0.267 0.323 0.4 0.579 0.759 1.079 1.528 1.56 2.232 0.32 0.475 0.62 0.924 0.919 1.344l0.303 0.427c0.099 0.14 0.197 0.281 0.32 0.413 1.237 1.561 2.519 2.533 4.377 2.655 0.26-1.127 0.401-2.295 0.401-3.495s-0.14-2.368-0.401-3.495c-1.86 0.121-3.14 1.092-4.401 2.655-0.24-0.328-0.476-0.68-0.74-1.061-0.5-0.755-1.079-1.611-1.76-2.46 1.341-1.559 3-2.9 5.243-3.409-2.657-4.911-7.897-8.231-13.917-8.231-6 0-11.253 3.32-13.987 8.231 2.241 0.512 3.897 1.851 5.241 3.408 0.115 0.12 0.224 0.24 0.332 0.38l0.316 0.4c0.639 0.82 1.219 1.66 1.74 2.46l0.74 1.101 0.32 0.439c0.099 0.139 0.22 0.28 0.319 0.42 1.401 1.919 2.82 3.24 5 3.24 2.2 0 3.601-1.32 5.020-3.24l0.5 0.74c0.601 0.88 1.243 1.84 1.94 2.74-1.697 1.961-4 3.64-7.46 3.64-3.459 0-5.739-1.7-7.439-3.64l-0.64-0.8c-0.58-0.76-1.080-1.539-1.56-2.24-0.319-0.48-0.62-0.92-0.919-1.341l-0.301-0.44c-0.099-0.139-0.199-0.28-0.32-0.419-1.301-1.479-2.583-2.459-4.441-2.579-0.26 1.132-0.4 2.3-0.4 3.5s0.136 2.368 0.387 3.495c1.864-0.121 3.14-1.092 4.393-2.655 0.229 0.328 0.472 0.68 0.725 1.061 0.5 0.755 1.075 1.611 1.751 2.46-1.345 1.559-3.004 2.9-5.24 3.409 2.727 4.909 7.964 8.229 13.983 8.229 6.020 0 11.255-3.32 13.987-8.231-2.24-0.512-3.896-1.851-5.24-3.408-0.115-0.12-0.227-0.24-0.333-0.38l-0.315-0.4c-0.64-0.82-1.221-1.66-1.74-2.46l-0.739-1.121c-0.099-0.148-0.205-0.3-0.307-0.44-0.104-0.148-0.205-0.292-0.309-0.433-1.401-1.92-2.8-3.241-5-3.241s-3.599 1.32-5 3.241l-0.5-0.747c-0.581-0.892-1.221-1.84-1.941-2.745 1.697-1.951 3.937-3.635 7.437-3.635z"></path>
</symbol>
<symbol id="icon-nintendogamecube" viewBox="0 0 32 32">
<title>nintendogamecube</title>
<path fill="#6a5fbb" style="fill: var(--color12, #6a5fbb)" d="M9.087 20.171l6.272 3.62v-7.244l-6.275-3.619v7.244z"></path>
<path fill="#6a5fbb" style="fill: var(--color12, #6a5fbb)" d="M6.387 21.728l8.973 5.177v5.095l-13.387-7.724v-15.453l4.413 2.547v10.36zM16 8.195l-6.271 3.624 6.271 3.621 6.273-3.623-6.273-3.621z"></path>
<path fill="#6a5fbb" style="fill: var(--color12, #6a5fbb)" d="M16 5.084l7.547 4.367 4.413-2.547-11.96-6.904-13.369 7.72 4.409 2.543 8.96-5.179zM25.611 21.728v-5.264l-2.697 1.556v2.152l-6.272 3.62v0.007-7.248l13.385-7.724v15.451l-13.387 7.727v-5.089l8.971-5.184z"></path>
</symbol>
<symbol id="icon-react" viewBox="0 0 32 32">
<title>react</title>
<path fill="#61dafb" style="fill: var(--color13, #61dafb)" d="M18.852 16c0 1.575-1.277 2.852-2.852 2.852s-2.852-1.277-2.852-2.852c0-1.575 1.277-2.852 2.852-2.852s2.852 1.277 2.852 2.852z"></path>
<path fill="#61dafb" style="fill: var(--color13, #61dafb)" d="M8.011 21.673l-0.629-0.16c-4.691-1.185-7.381-3.197-7.381-5.519s2.691-4.333 7.381-5.519l0.629-0.159 0.177 0.624c0.545 1.86 1.163 3.443 1.899 4.957l-0.082-0.186 0.135 0.284-0.135 0.284c-0.656 1.329-1.275 2.912-1.761 4.551l-0.056 0.22-0.177 0.623zM7.089 11.933c-3.565 1.001-5.753 2.533-5.753 4.061 0 1.527 2.188 3.059 5.753 4.061 0.512-1.62 1.046-2.965 1.662-4.263l-0.086 0.202c-0.531-1.098-1.066-2.443-1.511-3.828l-0.065-0.234zM23.989 21.673l-0.177-0.625c-0.544-1.859-1.162-3.441-1.9-4.954l0.081 0.184-0.135-0.284 0.135-0.284c0.656-1.329 1.275-2.911 1.762-4.55l0.056-0.221 0.177-0.624 0.631 0.159c4.689 1.185 7.38 3.197 7.38 5.52s-2.691 4.333-7.38 5.519l-0.631 0.16zM23.335 15.995c0.64 1.385 1.169 2.747 1.576 4.061 3.567-1.003 5.753-2.535 5.753-4.061 0-1.528-2.188-3.059-5.753-4.061-0.511 1.619-1.045 2.963-1.662 4.262l0.086-0.2z"></path>
<path fill="#61dafb" style="fill: var(--color13, #61dafb)" d="M7.080 11.927l-0.177-0.623c-1.319-4.648-0.919-7.979 1.097-9.141 1.977-1.141 5.152 0.207 8.479 3.621l0.453 0.465-0.453 0.465c-1.146 1.19-2.207 2.482-3.162 3.853l-0.068 0.103-0.18 0.257-0.313 0.027c-1.875 0.151-3.596 0.439-5.264 0.86l0.218-0.047-0.629 0.159zM9.608 3.087c-0.357 0-0.673 0.077-0.94 0.231-1.325 0.764-1.56 3.42-0.647 7.004 1.21-0.285 2.681-0.521 4.18-0.658l0.131-0.010c0.894-1.264 1.792-2.37 2.756-3.414l-0.020 0.022c-2.080-2.025-4.049-3.175-5.46-3.175zM22.393 30.236c-0.001 0-0.001 0 0 0-1.9 0-4.34-1.431-6.872-4.031l-0.453-0.465 0.453-0.465c1.146-1.19 2.206-2.482 3.16-3.854l0.068-0.103 0.18-0.257 0.312-0.027c1.875-0.15 3.597-0.438 5.267-0.858l-0.218 0.046 0.629-0.159 0.179 0.624c1.316 4.645 0.917 7.977-1.099 9.139-0.449 0.259-0.988 0.411-1.562 0.411-0.016 0-0.031-0-0.047-0l0.002 0zM16.932 25.728c2.080 2.025 4.049 3.175 5.46 3.175h0.001c0.356 0 0.673-0.077 0.939-0.231 1.325-0.764 1.561-3.421 0.647-7.005-1.212 0.286-2.682 0.522-4.182 0.658l-0.13 0.010c-0.893 1.265-1.791 2.371-2.755 3.416l0.020-0.022z"></path>
<path fill="#61dafb" style="fill: var(--color13, #61dafb)" d="M24.92 11.927l-0.629-0.159c-1.453-0.376-3.175-0.664-4.939-0.806l-0.111-0.007-0.312-0.027-0.18-0.257c-1.021-1.474-2.082-2.766-3.237-3.966l0.009 0.010-0.453-0.465 0.453-0.465c3.325-3.413 6.499-4.761 8.479-3.621 2.016 1.163 2.416 4.493 1.099 9.14l-0.179 0.624zM19.667 9.653c1.523 0.139 2.969 0.364 4.312 0.668 0.915-3.584 0.679-6.24-0.647-7.004-1.317-0.761-3.793 0.405-6.4 2.944 0.943 1.022 1.841 2.128 2.666 3.289l0.069 0.103zM9.608 30.236c-0.014 0-0.030 0-0.046 0-0.574 0-1.113-0.152-1.577-0.419l0.015 0.008c-2.016-1.161-2.416-4.492-1.097-9.139l0.176-0.624 0.629 0.159c1.54 0.388 3.239 0.661 5.047 0.812l0.313 0.027 0.179 0.257c1.022 1.475 2.083 2.767 3.239 3.967l-0.010-0.010 0.453 0.465-0.453 0.465c-2.531 2.6-4.971 4.031-6.868 4.031zM8.021 21.667c-0.915 3.584-0.679 6.241 0.647 7.005 1.316 0.751 3.791-0.407 6.4-2.944-0.943-1.022-1.841-2.129-2.667-3.29l-0.069-0.103c-1.629-0.146-3.099-0.382-4.534-0.711l0.224 0.043z"></path>
<path fill="#61dafb" style="fill: var(--color13, #61dafb)" d="M16 22.504c-1.097 0-2.225-0.048-3.355-0.141l-0.313-0.027-0.18-0.257c-0.544-0.768-1.139-1.691-1.697-2.639l-0.103-0.19c-0.452-0.758-0.971-1.732-1.45-2.728l-0.105-0.243-0.133-0.284 0.133-0.284c0.584-1.239 1.102-2.212 1.658-3.161l-0.103 0.191c0.552-0.955 1.159-1.907 1.8-2.829l0.18-0.257 0.313-0.027c1.005-0.090 2.174-0.142 3.355-0.142s2.35 0.052 3.505 0.153l-0.15-0.011 0.312 0.027 0.179 0.257c1.177 1.666 2.294 3.567 3.252 5.56l0.104 0.24 0.135 0.284-0.135 0.284c-1.058 2.232-2.176 4.133-3.439 5.925l0.083-0.125-0.179 0.257-0.312 0.027c-1.129 0.093-2.259 0.141-3.356 0.141zM13.071 21.059c1.973 0.148 3.885 0.148 5.86 0 1.004-1.445 1.978-3.104 2.827-4.836l0.101-0.228c-0.947-1.958-1.922-3.617-3.012-5.19l0.083 0.126c-0.877-0.071-1.898-0.111-2.929-0.111s-2.052 0.040-3.063 0.119l0.134-0.008c-1.008 1.447-1.983 3.106-2.83 4.84l-0.099 0.224c0.951 1.96 1.926 3.619 3.014 5.193l-0.085-0.13z"></path>
</symbol>
<symbol id="icon-sass" viewBox="0 0 32 32">
<title>sass</title>
<path fill="#c69" style="fill: var(--color14, #c69)" d="M16 0c8.836 0 16 7.164 16 16s-7.164 16-16 16-16-7.164-16-16 7.164-16 16-16zM12.82 21.331c0.233 0.86 0.208 1.664-0.032 2.389l-0.087 0.24c-0.032 0.081-0.069 0.16-0.104 0.235-0.187 0.387-0.435 0.747-0.74 1.080-0.931 1.012-2.229 1.396-2.787 1.073-0.6-0.349-0.301-1.78 0.779-2.92 1.161-1.224 2.827-2.012 2.827-2.012v-0.004l0.144-0.081zM26.035 6.849c-0.723-2.844-5.436-3.779-9.896-2.193-2.652 0.943-5.525 2.424-7.591 4.356-2.457 2.295-2.848 4.295-2.687 5.131 0.569 2.948 4.609 4.876 6.271 6.307v0.008c-0.489 0.24-4.075 2.039-4.915 3.9-0.9 1.96 0.14 3.361 0.82 3.54 2.1 0.581 4.26-0.48 5.42-2.199 1.12-1.681 1.021-3.841 0.539-4.901 0.661-0.18 1.44-0.26 2.44-0.139 2.801 0.32 3.361 2.080 3.24 2.8-0.12 0.719-0.697 1.139-0.899 1.259-0.2 0.121-0.26 0.16-0.241 0.241 0.020 0.12 0.121 0.12 0.28 0.1 0.22-0.040 1.461-0.6 1.521-1.961 0.060-1.72-1.581-3.639-4.5-3.6-1.2 0.021-1.961 0.121-2.5 0.341-0.040-0.060-0.081-0.1-0.14-0.14-1.8-1.94-5.14-3.3-5-5.88 0.040-0.94 0.38-3.419 6.4-6.419 4.94-2.461 8.881-1.78 9.561-0.28 0.977 2.139-2.101 6.12-7.241 6.699-1.96 0.22-2.98-0.539-3.241-0.82-0.279-0.3-0.319-0.32-0.419-0.259-0.16 0.080-0.060 0.34 0 0.5 0.16 0.4 0.78 1.1 1.861 1.46 0.939 0.3 3.24 0.479 6-0.6 3.099-1.199 5.519-4.54 4.819-7.34l0.097 0.089z"></path>
</symbol>
<symbol id="icon-skype" viewBox="0 0 32 32">
<title>skype</title>
<path fill="#00aff0" style="fill: var(--color15, #00aff0)" d="M16.092 25.165c-5.364 0-7.76-2.639-7.76-4.619 0-1.020 0.748-1.728 1.777-1.728 2.297 0 1.697 3.303 5.983 3.303 2.188 0 3.4-1.193 3.4-2.415 0-0.735-0.359-1.547-1.805-1.905l-4.768-1.193c-3.84-0.965-4.537-3.048-4.537-5.001 0-4.063 3.815-5.588 7.399-5.588 3.295 0 7.191 1.831 7.191 4.265 0 1.045-0.917 1.653-1.937 1.653-1.959 0-1.597-2.716-5.552-2.716-1.959 0-3.056 0.885-3.056 2.156s1.537 1.677 2.876 1.983l3.516 0.783c3.855 0.865 4.832 3.128 4.832 5.259 0 3.301-2.536 5.765-7.629 5.765zM30.799 18.657l-0.039 0.18-0.059-0.32c0.020 0.060 0.059 0.099 0.079 0.16 0.16-0.9 0.241-1.817 0.241-2.736 0-2.039-0.401-4.016-1.197-5.893-0.759-1.797-1.86-3.416-3.236-4.795-1.399-1.377-2.996-2.475-4.793-3.235-1.757-0.841-3.735-1.24-5.771-1.24-0.96 0-1.925 0.093-2.857 0.272l0.159 0.080-0.319-0.044 0.159-0.033c-1.285-0.688-2.727-1.053-4.191-1.053-2.385 0-4.627 0.931-6.315 2.623-1.688 1.691-2.617 3.941-2.617 6.332 0 1.524 0.389 3.020 1.125 4.344l0.027-0.165 0.055 0.319-0.080-0.153c-0.152 0.86-0.229 1.732-0.229 2.607 0 2.040 0.4 4.023 1.179 5.888 0.757 1.816 1.837 3.435 3.236 4.812 1.379 1.4 2.996 2.476 4.793 3.256 1.859 0.8 3.836 1.197 5.872 1.197 0.879 0 1.779-0.080 2.636-0.239l-0.159-0.083 0.32 0.061-0.18 0.040c1.336 0.759 2.835 1.161 4.392 1.161 2.377 0 4.612-0.92 6.311-2.617 1.679-1.679 2.616-3.935 2.616-6.332 0-1.517-0.399-3.016-1.137-4.355z"></path>
</symbol>
<symbol id="icon-snapchat" viewBox="0 0 32 32">
<title>snapchat</title>
<path fill="#fffc00" style="fill: var(--color16, #fffc00)" d="M16.275 1.057c1.32 0 5.796 0.368 7.907 5.095 0.705 1.591 0.537 4.292 0.399 6.463l-0.004 0.080c-0.016 0.24-0.029 0.46-0.040 0.68 0.1 0.060 0.271 0.12 0.535 0.12 0.4-0.021 0.879-0.16 1.377-0.401 0.22-0.117 0.459-0.139 0.619-0.139 0.243 0 0.479 0.039 0.679 0.12 0.6 0.199 0.979 0.639 0.979 1.117 0.020 0.599-0.52 1.119-1.617 1.557-0.119 0.039-0.279 0.1-0.459 0.159-0.6 0.18-1.519 0.48-1.777 1.080-0.12 0.299-0.081 0.699 0.16 1.157l0.020 0.020c0.080 0.181 2.035 4.633 6.388 5.352 0.34 0.059 0.58 0.36 0.56 0.679 0 0.1-0.020 0.199-0.060 0.3-0.32 0.759-1.697 1.317-4.195 1.695-0.079 0.121-0.16 0.5-0.219 0.76-0.039 0.239-0.099 0.48-0.179 0.737-0.101 0.361-0.36 0.54-0.74 0.54h-0.040c-0.18 0-0.417-0.041-0.717-0.099-0.48-0.1-1.020-0.18-1.697-0.18-0.4 0-0.799 0.020-1.217 0.099-0.8 0.139-1.497 0.619-2.297 1.179-1.137 0.799-2.435 1.717-4.392 1.717-0.080 0-0.159-0.020-0.24-0.020h-0.199c-1.957 0-3.236-0.9-4.372-1.717-0.799-0.56-1.476-1.039-2.276-1.179-0.419-0.060-0.839-0.099-1.237-0.099-0.72 0-1.277 0.119-1.696 0.199-0.281 0.057-0.521 0.099-0.72 0.099-0.499 0-0.697-0.299-0.777-0.56-0.081-0.256-0.12-0.519-0.18-0.756-0.061-0.241-0.14-0.659-0.221-0.76-2.557-0.296-3.933-0.856-4.252-1.635-0.041-0.084-0.069-0.2-0.073-0.3-0.020-0.324 0.22-0.62 0.56-0.679 4.352-0.72 6.307-5.172 6.388-5.36l0.021-0.039c0.24-0.46 0.299-0.86 0.159-1.159-0.26-0.579-1.179-0.877-1.776-1.079-0.161-0.039-0.32-0.099-0.461-0.159-1.476-0.58-1.676-1.24-1.596-1.697 0.12-0.639 0.899-1.057 1.557-1.057 0.195 0 0.36 0.039 0.511 0.099 0.56 0.259 1.052 0.4 1.472 0.4 0.312 0 0.512-0.080 0.62-0.14l-0.061-0.759c-0.131-2.168-0.3-4.868 0.409-6.449 2.052-4.703 6.515-5.063 7.832-5.063l0.559-0.020h0.080z"></path>
</symbol>
<symbol id="icon-twitch" viewBox="0 0 32 32">
<title>twitch</title>
<path fill="#6441a4" style="fill: var(--color17, #6441a4)" d="M2.785 0l-2.085 5.567v22.259h7.648v4.175h4.176l4.169-4.176h6.26l8.347-8.344v-19.48h-28.515zM5.567 2.78h22.953v15.305l-4.869 4.869h-7.651l-4.169 4.169v-4.169h-6.264v-20.175z"></path>
<path fill="#6441a4" style="fill: var(--color17, #6441a4)" d="M13.22 16.696h2.78v-8.347h-2.78v8.347zM20.867 16.696h2.781v-8.347h-2.781v8.347z"></path>
</symbol>
<symbol id="icon-twitter" viewBox="0 0 32 32">
<title>twitter</title>
<path fill="#1da1f2" style="fill: var(--color18, #1da1f2)" d="M31.939 6.092c-1.18 0.519-2.44 0.872-3.767 1.033 1.352-0.815 2.392-2.099 2.884-3.631-1.268 0.74-2.673 1.279-4.169 1.579-1.195-1.279-2.897-2.079-4.788-2.079-3.623 0-6.56 2.937-6.56 6.556 0 0.52 0.060 1.020 0.169 1.499-5.453-0.257-10.287-2.876-13.521-6.835-0.569 0.963-0.888 2.081-0.888 3.3 0 2.28 1.16 4.284 2.917 5.461-1.076-0.035-2.088-0.331-2.971-0.821v0.081c0 3.18 2.257 5.832 5.261 6.436-0.551 0.148-1.132 0.228-1.728 0.228-0.419 0-0.82-0.040-1.221-0.115 0.841 2.604 3.26 4.503 6.139 4.556-2.24 1.759-5.079 2.807-8.136 2.807-0.52 0-1.039-0.031-1.56-0.089 2.919 1.859 6.357 2.945 10.076 2.945 12.072 0 18.665-9.995 18.665-18.648 0-0.279 0-0.56-0.020-0.84 1.281-0.919 2.4-2.080 3.28-3.397l-0.063-0.027z"></path>
</symbol>
<symbol id="icon-viber" viewBox="0 0 32 32">
<title>viber</title>
<path fill="#7c529e" style="fill: var(--color19, #7c529e)" d="M27.749 3.124c-0.795-0.732-4.008-3.067-11.168-3.1 0 0-8.441-0.507-12.553 3.268-2.292 2.293-3.097 5.639-3.183 9.801-0.087 4.152-0.196 11.939 7.315 14.053h0.007l-0.007 3.221s-0.045 1.305 0.812 1.571c1.039 0.32 1.648-0.672 2.64-1.737 0.545-0.585 1.296-1.451 1.863-2.109 5.135 0.429 9.084-0.555 9.532-0.7 1.036-0.339 6.901-1.088 7.857-8.877 0.984-8.028-0.476-13.107-3.117-15.396v0.005zM28.619 17.94c-0.82 6.501-5.579 6.916-6.44 7.195-0.38 0.123-3.86 0.984-8.219 0.7 0 0-3.26 3.921-4.26 4.94-0.161 0.161-0.361 0.221-0.481 0.193-0.18-0.039-0.219-0.24-0.219-0.539l0.020-5.341c-0.020 0 0 0 0 0-6.361-1.781-5.98-8.401-5.9-11.88 0.059-3.461 0.717-6.301 2.659-8.223 3.481-3.161 10.663-2.683 10.663-2.683 6.057 0.021 8.961 1.847 9.631 2.461 2.232 1.909 3.372 6.487 2.539 13.191l0.008-0.015zM10.321 6.644c0.323 0 0.612 0.145 0.839 0.415 0.005 0.003 0.773 0.927 1.107 1.379 0.313 0.427 0.735 1.107 0.948 1.487 0.38 0.68 0.139 1.376-0.229 1.664l-0.755 0.6c-0.38 0.305-0.333 0.871-0.333 0.871s1.12 4.209 5.279 5.271c0 0 0.568 0.052 0.872-0.328l0.601-0.759c0.284-0.38 0.979-0.62 1.659-0.241 0.38 0.2 1.060 0.621 1.488 0.939 0.452 0.32 1.376 1.101 1.381 1.101 0.44 0.361 0.539 0.919 0.24 1.479v0.021c-0.307 0.54-0.721 1.040-1.245 1.521h-0.011c-0.419 0.36-0.839 0.56-1.259 0.599-0.040 0-0.1 0.021-0.181 0-0.18 0-0.36-0.039-0.539-0.081v-0.019c-0.64-0.18-1.7-0.64-3.461-1.621-1.14-0.639-2.099-1.28-2.919-1.94-0.42-0.34-0.86-0.72-1.301-1.16l-0.101-0.037-0.079-0.079c-0.441-0.44-0.82-0.88-1.161-1.307-0.64-0.812-1.28-1.769-1.919-2.919-0.98-1.76-1.44-2.82-1.62-3.461h-0.021c-0.060-0.179-0.1-0.359-0.080-0.539-0.020-0.081 0-0.14 0-0.188 0.040-0.399 0.252-0.819 0.611-1.259h0.007c0.473-0.52 0.984-0.939 1.528-1.244 0.219-0.121 0.439-0.18 0.639-0.18h0.021l-0.004 0.016zM15.781 5.733h0.155l0.101 0.003h0.027l0.119 0.007h0.681l0.18 0.020h0.099l0.2 0.021h0.040l0.139 0.020h0.021l0.099 0.020c0.061 0 0.101 0.021 0.14 0.021h0.121l0.1 0.039 0.080 0.021 0.080 0.020 0.040 0.020h0.060l0.061 0.021h0.039l0.099 0.021 0.060 0.019 0.061 0.021 0.080 0.021 0.040 0.019c0.040 0 0.080 0.021 0.121 0.021l0.059 0.020 0.061 0.021 0.159 0.059 0.081 0.041 0.18 0.080 0.060 0.020 0.060 0.021 0.12 0.060 0.081 0.020 0.039 0.020 0.101 0.041 0.039 0.019 0.081 0.041 0.060 0.019 0.060 0.040 0.079 0.040 0.061 0.039 0.040 0.021 0.081 0.040 0.059 0.040 0.1 0.060 0.060 0.021 0.099 0.059 0.021 0.020 0.060 0.041 0.12 0.099 0.061 0.040 0.059 0.040 0.041 0.019 0.060 0.041 0.099 0.099 0.081 0.060 0.060 0.040 0.021 0.020 0.039 0.021 0.099 0.081 0.061 0.059 0.040 0.040 0.060 0.039 0.060 0.041 0.039 0.020 0.16 0.16 0.080 0.081 0.18 0.18 0.041 0.039c0.021 0.021 0.060 0.060 0.081 0.1l0.039 0.040 0.221 0.259 0.060 0.080c0.019 0.021 0.019 0.041 0.039 0.041l0.12 0.18 0.060 0.060 0.12 0.16 0.101 0.16 0.060 0.12 0.079 0.14 0.060 0.12 0.021 0.039 0.039 0.081 0.101 0.2 0.099 0.199 0.041 0.1c0.079 0.18 0.139 0.36 0.219 0.56 0.099 0.26 0.18 0.539 0.24 0.84 0.060 0.22 0.101 0.42 0.14 0.64l0.039 0.36 0.060 0.4c0.021 0.161 0.041 0.341 0.041 0.5 0.019 0.161 0.019 0.32 0.019 0.479v0.341c0 0.021-0.008 0.039-0.019 0.060-0.021 0.040-0.041 0.060-0.081 0.1-0.028 0.020-0.065 0.061-0.107 0.061-0.039 0.019-0.079 0.019-0.12 0.019h-0.060c-0.039 0-0.079-0.019-0.12-0.039-0.039-0.021-0.081-0.040-0.099-0.081-0.021-0.039-0.060-0.081-0.081-0.12s-0.041-0.080-0.041-0.12v-0.479c-0.019-0.279-0.039-0.567-0.079-0.852-0.021-0.195-0.060-0.379-0.081-0.56 0-0.099-0.021-0.195-0.039-0.279l-0.039-0.2-0.051-0.188-0.021-0.12-0.060-0.2c-0.039-0.16-0.099-0.32-0.159-0.48-0.039-0.121-0.081-0.22-0.14-0.319l-0.039-0.101-0.18-0.36-0.041-0.060c-0.081-0.18-0.18-0.36-0.3-0.521l-0.060-0.099h-0.268l-0.085-0.121c-0.073-0.119-0.152-0.22-0.24-0.319l-0.167-0.2-0.020-0.021-0.061-0.076-0.047-0.060-0.1-0.099-0.020-0.040-0.093-0.080-0.060-0.061-0.111-0.1-0.053-0.049-0.061-0.060-0.020-0.021c-0.021-0.020-0.060-0.060-0.1-0.080l-0.101-0.083-0.040-0.020-0.081-0.061-0.099-0.080-0.060-0.048-0.040-0.021-0.080-0.071c0-0.021-0.021-0.021-0.041-0.021l-0.039-0.039-0.020-0.021v-0.017l-0.040-0.019-0.081-0.049-0.059-0.041-0.1-0.060-0.080-0.060-0.039-0.021-0.043-0.017h-0.12l-0.025-0.021-0.087-0.047-0.012-0.019-0.040-0.021-0.060-0.028h-0.016l-0.060-0.021-0.033-0.020-0.060-0.020-0.013-0.015-0.040-0.021-0.071-0.039-0.040-0.020-0.12-0.040-0.099-0.039-0.183-0.021-0.059-0.039c-0.020-0.013-0.040-0.021-0.061-0.021l-0.039-0.020c-0.039-0.015-0.060-0.021-0.1-0.040l-0.040-0.021h-0.039l-0.081-0.039-0.039-0.021-0.060-0.020h-0.123c-0.011 0-0.025-0.007-0.040-0.009h-0.12l-0.060-0.021h-0.020l-0.060-0.021h-0.055c-0.033-0.019-0.060-0.019-0.093-0.019l-0.013-0.021-0.080-0.020c-0.040-0.021-0.075-0.021-0.112-0.021l-0.060-0.020-0.067-0.021-0.060-0.019-0.081-0.021h-0.081l-0.239-0.029h-0.12l-0.155-0.020h-0.101l-0.091-0.011h-0.040l-0.072-0.021h-0.38l-0.013-0.020h-0.081c-0.040 0-0.085-0.020-0.12-0.040-0.040-0.021-0.081-0.039-0.108-0.080l-0.040-0.061c-0.039-0.039-0.039-0.080-0.060-0.12-0.019-0.037-0.019-0.079-0.019-0.119s0-0.080 0.020-0.12c0.021-0.039 0.039-0.080 0.081-0.1 0.020-0.040 0.059-0.059 0.099-0.080 0.039-0.021 0.081-0.040 0.12-0.040h0.081l0.020 0.088zM16.52 7.832l0.049 0.004 0.081 0.008c0.011 0 0.024 0 0.039 0.004 0.029 0 0.060 0.005 0.1 0.008l0.080 0.011 0.032 0.021 0.060 0.020 0.064 0.020 0.060 0.021h0.040l0.056 0.020 0.093 0.020 0.075 0.021 0.035 0.019h0.097l0.159 0.037 0.061 0.020 0.060 0.020 0.060 0.021s0.020 0 0.020 0.020l0.061 0.020 0.059 0.021 0.060 0.021c0.020 0 0.040 0.019 0.061 0.019 0.009 0 0.019 0.021 0.033 0.021l0.085 0.040h0.039l0.12 0.040 0.067 0.039 0.061 0.040 0.144 0.060 0.080 0.020 0.041 0.041c0.060 0.019 0.12 0.059 0.18 0.079l0.128 0.080 0.065 0.039c0.060 0.040 0.109 0.061 0.161 0.101l0.039 0.019 0.055 0.041 0.029 0.020 0.1 0.060 0.049 0.040 0.087 0.057 0.039 0.020 0.040 0.020 0.061 0.040 0.080 0.061c0.020 0.019 0.029 0.019 0.045 0.039 0.013 0.020 0.021 0.020 0.033 0.040l0.044 0.040 0.048 0.039 0.101 0.101 0.039 0.040 0.021 0.021 0.12 0.119 0.021 0.021c0 0.020 0.020 0.040 0.039 0.040l0.021 0.017 0.060 0.061 0.039 0.060 0.040 0.040 0.060 0.080 0.061 0.061 0.12 0.159 0.019 0.039 0.081 0.101 0.021 0.039 0.020 0.041 0.020 0.039 0.021 0.040c0.021 0.020 0.021 0.040 0.039 0.080l0.057 0.101 0.021 0.020 0.039 0.081 0.041 0.059c0.019 0.020 0.019 0.039 0.039 0.060l0.040 0.060 0.079 0.16 0.021 0.061c0.020 0.059 0.060 0.1 0.080 0.16 0 0.020 0.020 0.039 0.020 0.060l0.060 0.159 0.081 0.26c0 0.021 0.020 0.060 0.020 0.081l0.061 0.18 0.059 0.24 0.061 0.32c0.019 0.099 0.019 0.18 0.039 0.281 0.021 0.159 0.040 0.317 0.040 0.479l0.020 0.28v0.22c0 0.021 0 0.039-0.020 0.060l-0.059 0.057c-0.039 0.031-0.060 0.060-0.099 0.081-0.040 0.020-0.081 0.039-0.12 0.053-0.041 0.021-0.1 0.021-0.14 0.021-0.039 0-0.081-0.021-0.12-0.040-0.021 0-0.040-0.021-0.060-0.028-0.041-0.019-0.081-0.052-0.1-0.087-0.040-0.040-0.061-0.080-0.061-0.121l-0.019-0.059v-0.417c0-0.177-0.021-0.341-0.041-0.513-0.020-0.18-0.059-0.38-0.099-0.56-0.039-0.12-0.060-0.24-0.1-0.347l-0.040-0.121-0.039-0.1-0.021-0.040-0.060-0.16-0.060-0.12-0.1-0.199-0.092-0.16v-0.025l-0.039-0.063-0.040-0.051-0.060-0.1-0.061-0.081-0.119-0.159c-0.061-0.081-0.12-0.16-0.189-0.237-0.019-0.020-0.039-0.039-0.039-0.060l-0.040-0.039-0.023-0.021-0.040-0.019-0.040-0.036v-0.195l-0.159-0.151-0.1-0.091v-0.019l-0.040-0.041-0.051-0.039-0.020-0.021c0-0.020-0.021-0.020-0.039-0.020l-0.061-0.021-0.020-0.020-0.081-0.060-0.019-0.021-0.021-0.020c-0.016-0.020-0.031-0.020-0.040-0.020l-0.080-0.060-0.021-0.021-0.080-0.039-0.015-0.021-0.060-0.039-0.040-0.021-0.040-0.039-0.039-0.041h-0.021c-0.039-0.039-0.080-0.059-0.14-0.080l-0.059-0.040-0.040-0.019-0.021-0.021-0.060-0.040-0.059-0.020-0.080-0.040-0.061-0.020-0.020-0.021-0.075-0.019v-0.016l-0.121-0.040-0.12-0.060h-0.080c-0.040-0.020-0.060-0.020-0.1-0.040h-0.059l-0.060-0.021h-0.059l-0.061-0.019-0.039-0.021h-0.081l-0.081-0.020-0.039-0.021h-0.22l-0.092-0.020h-0.468l-0.061-0.021c-0.039-0.019-0.080-0.039-0.12-0.080-0.019-0.040-0.060-0.080-0.080-0.119-0.020-0.041-0.040-0.081-0.040-0.121v-0.12c0.008-0.061 0.021-0.1 0.040-0.14 0.011-0.020 0.020-0.040 0.040-0.060 0.024-0.040 0.060-0.080 0.1-0.1 0.020-0.020 0.040-0.020 0.059-0.039 0.041-0.021 0.081-0.021 0.121-0.021h0.080l-0.019 0.073zM17.125 10.004c0.020 0 0.040 0 0.059 0.005 0.021 0 0.041 0 0.061 0.003l0.069 0.007c0.139 0.012 0.284 0.032 0.424 0.061l0.139 0.031 0.035 0.011 0.152 0.039 0.079 0.027 0.061 0.021c0.060 0.019 0.121 0.060 0.18 0.080l0.021 0.020 0.080 0.040 0.12 0.061 0.039 0.019c0.021 0.021 0.041 0.021 0.061 0.040 0.020 0.021 0.060 0.040 0.080 0.060 0.081 0.040 0.14 0.1 0.2 0.14l0.14 0.12 0.12 0.121 0.081 0.099 0.039 0.039 0.040 0.041 0.059 0.080 0.121 0.18 0.1 0.18 0.080 0.16 0.061 0.14c0.059 0.139 0.080 0.26 0.12 0.399 0.039 0.121 0.060 0.261 0.080 0.38l0.020 0.2 0.021 0.181v0.079c0 0.060-0.021 0.1-0.040 0.14-0.020 0.039-0.061 0.099-0.1 0.12-0.040 0.039-0.081 0.060-0.14 0.081-0.039 0.019-0.080 0.019-0.12 0.019-0.039 0-0.080 0-0.12-0.019l-0.139-0.061c-0.040-0.040-0.080-0.060-0.121-0.121-0.020-0.039-0.039-0.080-0.060-0.139v-0.221l-0.020-0.14-0.020-0.159-0.021-0.14-0.021-0.080c0-0.020-0.019-0.060-0.019-0.080-0.040-0.161-0.12-0.32-0.2-0.48l-0.081-0.080-0.063-0.080-0.060-0.060-0.020-0.040-0.1-0.080-0.081-0.081-0.079-0.060c-0.021-0.020-0.040-0.020-0.081-0.039l-0.12-0.081-0.081-0.040-0.039-0.020h-0.021l-0.101-0.041-0.12-0.040-0.12-0.020h-0.1l-0.059-0.020-0.047-0.009h-0.060l-0.080-0.021h-0.34l-0.020-0.1h-0.052c-0.040-0.005-0.073-0.020-0.107-0.039-0.047-0.028-0.085-0.060-0.12-0.107-0.024-0.039-0.045-0.081-0.060-0.12-0.011-0.039-0.016-0.080-0.016-0.12 0-0.049 0-0.1 0.020-0.151 0.020-0.052 0.040-0.093 0.080-0.133l0.081-0.060c0.039-0.021 0.081-0.040 0.12-0.040l0.083-0.1h0.043z"></path>
</symbol>
<symbol id="icon-visualstudiocode" viewBox="0 0 32 32">
<title>visualstudiocode</title>
<path fill="#0271bc" style="fill: var(--color20, #0271bc)" d="M31.795 2.639l-6.601-2.639-14.36 14-8.74-6.68-1.899 0.94v15.52l1.88 0.92 8.74-6.66 14.393 13.96 6.597-2.599v-26.741l-0.016-0.021h0.005zM3.033 19.639v-7.277l4.040 3.599-4.040 3.66v0.019zM15.995 15.98l8.099-6.060v12.161l-8.099-6.101z"></path>
</symbol>
<symbol id="icon-vuejs" viewBox="0 0 32 32">
<title>vuejs</title>
<path fill="#4fc08d" style="fill: var(--color21, #4fc08d)" d="M25.596 2.144l0.004-0.008h-5.9l-3.7 6.4-3.696-6.4h-5.9v0.007h-6.404l16 27.715 16-27.713z"></path>
</symbol>
<symbol id="icon-youtube" viewBox="0 0 32 32">
<title>youtube</title>
<path fill="#f00" style="fill: var(--color11, #f00)" d="M31.327 8.273c-0.386-1.353-1.431-2.398-2.756-2.777l-0.028-0.007c-2.493-0.668-12.528-0.668-12.528-0.668s-10.009-0.013-12.528 0.668c-1.353 0.386-2.398 1.431-2.777 2.756l-0.007 0.028c-0.443 2.281-0.696 4.903-0.696 7.585 0 0.054 0 0.109 0 0.163l-0-0.008c-0 0.037-0 0.082-0 0.126 0 2.682 0.253 5.304 0.737 7.845l-0.041-0.26c0.386 1.353 1.431 2.398 2.756 2.777l0.028 0.007c2.491 0.669 12.528 0.669 12.528 0.669s10.008 0 12.528-0.669c1.353-0.386 2.398-1.431 2.777-2.756l0.007-0.028c0.425-2.233 0.668-4.803 0.668-7.429 0-0.099-0-0.198-0.001-0.297l0 0.015c0.001-0.092 0.001-0.201 0.001-0.31 0-2.626-0.243-5.196-0.708-7.687l0.040 0.258zM12.812 20.801v-9.591l8.352 4.803z"></path>
</symbol>
<symbol id="icon-chevron-left" viewBox="0 0 20 20">
<title>chevron-left</title>
<path d="M12.452 4.516c0.446 0.436 0.481 1.043 0 1.576l-3.747 3.908 3.747 3.908c0.481 0.533 0.446 1.141 0 1.574-0.445 0.436-1.197 0.408-1.615 0-0.418-0.406-4.502-4.695-4.502-4.695-0.223-0.217-0.335-0.502-0.335-0.787s0.112-0.57 0.335-0.789c0 0 4.084-4.287 4.502-4.695s1.17-0.436 1.615 0z"></path>
</symbol>
<symbol id="icon-chevron-right" viewBox="0 0 20 20">
<title>chevron-right</title>
<path d="M9.163 4.516c0.418 0.408 4.502 4.695 4.502 4.695 0.223 0.219 0.335 0.504 0.335 0.789s-0.112 0.57-0.335 0.787c0 0-4.084 4.289-4.502 4.695-0.418 0.408-1.17 0.436-1.615 0-0.446-0.434-0.481-1.041 0-1.574l3.747-3.908-3.747-3.908c-0.481-0.533-0.446-1.141 0-1.576s1.197-0.409 1.615 0z"></path>
</symbol>
<symbol id="icon-chevron-thin-left" viewBox="0 0 20 20">
<title>chevron-thin-left</title>
<path d="M13.891 17.418c0.268 0.272 0.268 0.709 0 0.979s-0.701 0.271-0.969 0l-7.83-7.908c-0.268-0.27-0.268-0.707 0-0.979l7.83-7.908c0.268-0.27 0.701-0.27 0.969 0s0.268 0.709 0 0.979l-7.141 7.419 7.141 7.418z"></path>
</symbol>
<symbol id="icon-chevron-thin-right" viewBox="0 0 20 20">
<title>chevron-thin-right</title>
<path d="M13.25 10l-7.141-7.42c-0.268-0.27-0.268-0.707 0-0.979 0.268-0.27 0.701-0.27 0.969 0l7.83 7.908c0.268 0.271 0.268 0.709 0 0.979l-7.83 7.908c-0.268 0.271-0.701 0.27-0.969 0s-0.268-0.707 0-0.979l7.141-7.417z"></path>
</symbol>
<symbol id="icon-mobile" viewBox="0 0 32 32">
<title>mobile</title>
<path d="M23 0h-14c-1.65 0-3 1.35-3 3v26c0 1.65 1.35 3 3 3h14c1.65 0 3-1.35 3-3v-26c0-1.65-1.35-3-3-3zM12 1.5h8v1h-8v-1zM16 30c-1.105 0-2-0.895-2-2s0.895-2 2-2 2 0.895 2 2-0.895 2-2 2zM24 24h-16v-20h16v20z"></path>
</symbol>
<symbol id="icon-clipboard" viewBox="0 0 32 32">
<title>clipboard</title>
<path d="M29 4h-9c0-2.209-1.791-4-4-4s-4 1.791-4 4h-9c-0.552 0-1 0.448-1 1v26c0 0.552 0.448 1 1 1h26c0.552 0 1-0.448 1-1v-26c0-0.552-0.448-1-1-1zM16 2c1.105 0 2 0.895 2 2s-0.895 2-2 2c-1.105 0-2-0.895-2-2s0.895-2 2-2zM28 30h-24v-24h4v3c0 0.552 0.448 1 1 1h14c0.552 0 1-0.448 1-1v-3h4v24z"></path>
<path d="M14 26.828l-6.414-7.414 1.828-1.828 4.586 3.586 8.586-7.586 1.829 1.828z"></path>
</symbol>
<symbol id="icon-enter" viewBox="0 0 32 32">
<title>enter</title>
<path d="M12 16h-10v-4h10v-4l6 6-6 6zM32 0v26l-12 6v-6h-12v-8h2v6h10v-18l8-4h-18v8h-2v-10z"></path>
</symbol>
<symbol id="icon-exit" viewBox="0 0 32 32">
<title>exit</title>
<path d="M24 20v-4h-10v-4h10v-4l6 6zM22 18v8h-10v6l-12-6v-26h22v10h-2v-8h-16l8 4v18h8v-6z"></path>
</symbol>
</defs>
</svg>
