<!-- Generated by IcoMoon.io -->
<svg version="1.1" xmlns="http://www.w3.org/2000/svg" width="32" height="32" viewBox="0 0 32 32">
<title>hipchat</title>
<path fill="#0052cc" d="M29.133 29.175c-1.113-0.636-2.145-1.752-2.705-3.264-0.080-0.32 0-0.556 0.241-0.715 3.339-2.471 5.331-6.209 5.331-10.349 0-7.64-7.164-13.851-16-13.851-8.836 0.080-16 6.288-16 13.851 0 7.64 7.164 13.849 16 13.849 1.115 0 2.229-0.079 3.344-0.32 0.24-0.079 0.476 0 0.637 0.16 2.149 1.356 5.492 2.469 8.28 2.469 0.872 0 1.271-0.555 1.271-1.113 0.16-0.241-0.161-0.481-0.399-0.717zM24.833 27.901c0.081 0.080 0.081 0.157 0.081 0.157 0 0.083-0.081 0.16-0.16 0.16-0.795 0-3.34-1.352-4.615-2.388-0.159-0.161-0.4-0.241-0.796-0.161-1.036 0.241-2.229 0.401-3.344 0.401-7.401 0-13.373-4.936-13.373-11.067 0-6.128 5.972-11.064 13.373-11.064s13.375 4.936 13.375 11.064c0 3.584-2.071 6.845-5.416 8.836-0.24 0.16-0.479 0.4-0.479 0.72 0 0.713 0.639 2.307 1.356 3.341h-0.003zM24.753 18.111c0-0.32-0.236-0.64-0.635-0.64-0.16 0-0.32 0.080-0.4 0.16-1.589 1.435-4.376 2.708-7.72 2.708s-5.971-1.36-7.72-2.72c-0.080-0.081-0.32-0.16-0.4-0.16-0.4 0-0.636 0.32-0.636 0.719 0 0.32 0.159 0.54 0.399 0.781 0.955 1.34 3.901 3.82 8.357 3.82h0.081c4.46 0 7.4-2.401 8.36-3.901 0.080-0.24 0.315-0.56 0.315-0.8l-0.001 0.033z"></path>
</svg>
